<svg width="32" xmlns="http://www.w3.org/2000/svg" height="32" fill="none"><defs><clipPath id="a" class="frame-clip frame-clip-def"><rect rx="0" ry="0" width="32" height="32" transform="matrix(1.000000, 0.000000, 0.000000, 1.000000, 0.000000, 0.000000)"/></clipPath></defs><g class="frame-container-wrapper"><g class="frame-container-blur"><g clip-path="url(#a)" class="frame-container-shadows"><g class="fills"><rect rx="0" ry="0" width="32" height="32" transform="matrix(1.000000, 0.000000, 0.000000, 1.000000, 0.000000, 0.000000)" class="frame-background"/></g><g class="frame-children"><defs><linearGradient id="b" x1="-.089" y1="-.109" x2="1.135" y2="1.229"><stop offset=".36" stop-color="#32b0d9"/><stop offset=".61" stop-color="#217a97"/><stop offset="1" stop-color="#0d3744"/></linearGradient><pattern patternUnits="userSpaceOnUse" x="4" y="7" width="24" height="18" id="c"><rect width="24" height="18" style="fill: url(&quot;#b&quot;);"/></pattern></defs><rect rx="1" ry="1" x="4" y="7" transform="matrix(1.000000, 0.000000, 0.000000, 1.000000, 0.000000, 0.000000)" width="24" height="18" fill="url(#c)" class="fills"/><path d="M4,24 h24 a0,0 0 0 1 0,0 v0 a1,1 0 0 1 -1,1 h-22 a1,1 0 0 1 -1,-1 v0 a0,0 0 0 1 0,0 z" transform="matrix(1.000000, 0.000000, 0.000000, 1.000000, 0.000000, 0.000000)" style="fill: rgb(8, 33, 38); fill-opacity: 1;" class="fills"/><rect rx="0" ry="0" x="4" y="23" transform="matrix(1.000000, 0.000000, 0.000000, 1.000000, 0.000000, 0.000000)" width="24" height="1" style="fill: rgb(8, 33, 38); fill-opacity: 1;" class="fills"/><rect rx="0" ry="0" x="4" y="22.5" transform="matrix(1.000000, 0.000000, 0.000000, 1.000000, 0.000000, 0.000000)" width="24" height="1" style="fill: rgb(8, 33, 38); fill-opacity: 1;" class="fills"/><defs><filter id="d" x="-9" y="-9" width="23" height="23" filterUnits="objectBoundingBox" color-interpolation-filters="sRGB"><feFlood flood-opacity="0" result="BackgroundImageFix"/><feColorMatrix in="SourceAlpha" values="0 0 0 0 0 0 0 0 0 0 0 0 0 0 0 0 0 0 127 0"/><feOffset dx="4" dy="4"/><feGaussianBlur stdDeviation="2"/><feColorMatrix values="0 0 0 0 0 0 0 0 0 0 0 0 0 0 0 0 0 0 0.2 0"/><feBlend in2="BackgroundImageFix" result="filter_daa4bbd8-63ad-802a-8006-088898392ad0"/><feBlend in="SourceGraphic" in2="filter_daa4bbd8-63ad-802a-8006-088898392ad0" result="shape"/></filter></defs><path d="M5.500,8.500C5.500,8.224,5.724,8.000,6.000,8.000L8.000,8.000C8.276,8.000,8.500,8.224,8.500,8.500L8.500,10.500C8.500,10.776,8.276,11.000,8.000,11.000L6.000,11.000C5.724,11.000,5.500,10.776,5.500,10.500L5.500,8.500Z" filter="url(#d)" style="fill: rgb(239, 239, 239); fill-opacity: 1;" class="fills"/><defs><filter id="e" x="-9" y="-9" width="23" height="23" filterUnits="objectBoundingBox" color-interpolation-filters="sRGB"><feFlood flood-opacity="0" result="BackgroundImageFix"/><feColorMatrix in="SourceAlpha" values="0 0 0 0 0 0 0 0 0 0 0 0 0 0 0 0 0 0 127 0"/><feOffset dx="4" dy="4"/><feGaussianBlur stdDeviation="2"/><feColorMatrix values="0 0 0 0 0 0 0 0 0 0 0 0 0 0 0 0 0 0 0.2 0"/><feBlend in2="BackgroundImageFix" result="filter_daa4bbd8-63ad-802a-8006-08889ddb992d"/><feBlend in="SourceGraphic" in2="filter_daa4bbd8-63ad-802a-8006-08889ddb992d" result="shape"/></filter></defs><rect width="3" height="3" x="5.5" transform="matrix(1.000000, 0.000000, 0.000000, 1.000000, 0.000000, 0.000000)" style="fill: rgb(239, 239, 239); fill-opacity: 1;" ry=".5" rx=".5" filter="url(#e)" y="12" class="fills"/><rect rx=".125" ry=".125" x="5.5" y="23" transform="matrix(1.000000, 0.000000, 0.000000, 1.000000, 0.000000, 0.000000)" width="1.5" height="1.5" style="fill: rgb(239, 239, 239); fill-opacity: 1;" class="fills"/><g filter="url(#f)"><defs><filter id="f" x="-6.75" y="-18" width="20.5" height="53" filterUnits="objectBoundingBox" color-interpolation-filters="sRGB"><feFlood flood-opacity="0" result="BackgroundImageFix"/><feColorMatrix in="SourceAlpha" values="0 0 0 0 0 0 0 0 0 0 0 0 0 0 0 0 0 0 127 0"/><feOffset dx="8" dy="8"/><feGaussianBlur stdDeviation="2"/><feColorMatrix values="0 0 0 0 0 0 0 0 0 0 0 0 0 0 0 0 0 0 0.4 0"/><feBlend in2="BackgroundImageFix" result="filter_daa4bbd8-63ad-802a-8006-0889a931426e"/><feBlend in="SourceGraphic" in2="filter_daa4bbd8-63ad-802a-8006-0889a931426e" result="shape"/></filter></defs><rect rx=".125" ry=".125" x="25.5" y="23" transform="matrix(1.000000, 0.000000, 0.000000, 1.000000, 0.000000, 0.000000)" width="1.5" height="1.5" style="fill: rgb(239, 239, 239); fill-opacity: 1;" class="fills"/><rect rx=".125" ry=".125" x="23" y="23" transform="matrix(1.000000, 0.000000, 0.000000, 1.000000, 0.000000, 0.000000)" width="1.5" height="1.5" style="fill: rgb(239, 239, 239); fill-opacity: 1;" class="fills"/></g></g></g></g></g></svg>